<svg xmlns="http://www.w3.org/2000/svg" viewBox="0 0 88.43 75.09"><defs><style>.cls-1{fill:#cac9ca;}</style></defs><g id="레이어_2" data-name="레이어 2"><g id="Layer_1" data-name="Layer 1"><circle class="cls-1" cx="19.79" cy="61.05" r="4.04"/><circle class="cls-1" cx="26.79" cy="71.05" r="4.04"/><path class="cls-1" d="M44.47,63.55a17.58,17.58,0,0,1-6.14-1.14,1.08,1.08,0,0,1-.3-.16c-6.91-4.72-5.51-11.25-5.32-12C36.39,32.58,50.87,2.19,51.49.91a1.6,1.6,0,0,1,3,.94,125.6,125.6,0,0,0,1,44.7c2.08,9.72-2.51,13.74-3.21,14.29A11.74,11.74,0,0,1,44.47,63.55Zm-4.79-4c1,.35,6.71,2.2,10.54-1.12l.12-.09c.13-.11,3.76-3,2-11a123.72,123.72,0,0,1-2.22-35.74c-4.7,10.6-11.95,28-14.32,39.4a.44.44,0,0,1,0,.1C35.76,51.22,34.6,55.92,39.68,59.51Z"/><path class="cls-1" d="M44.27,70.2C28.92,70.2,26,58.26,25.46,53.87H1.6a1.6,1.6,0,0,1,0-3.2H26.93a1.59,1.59,0,0,1,1.6,1.6c0,.59.25,14.73,15.74,14.73a1.6,1.6,0,0,1,0,3.2Z"/><path class="cls-1" d="M43.93,70.2a1.6,1.6,0,1,1,0-3.2c15.56,0,15.74-14.13,15.74-14.73a1.59,1.59,0,0,1,1.6-1.6H86.6a1.6,1.6,0,1,1,0,3.2H62.74C62.19,58.26,59.28,70.2,43.93,70.2Z"/><path class="cls-1" d="M6.6,69.87a6.6,6.6,0,1,1,6.6-6.6A6.61,6.61,0,0,1,6.6,69.87Zm0-10a3.4,3.4,0,1,0,3.4,3.4A3.4,3.4,0,0,0,6.6,59.87Z"/><circle class="cls-1" cx="68.64" cy="61.05" r="4.04"/><circle class="cls-1" cx="61.64" cy="71.05" r="4.04"/><path class="cls-1" d="M81.83,69.87a6.6,6.6,0,1,1,6.6-6.6A6.61,6.61,0,0,1,81.83,69.87Zm0-10a3.4,3.4,0,1,0,3.4,3.4A3.4,3.4,0,0,0,81.83,59.87Z"/></g></g></svg>