<svg xmlns="http://www.w3.org/2000/svg" viewBox="0 0 83.01 83.72"><defs><style>.cls-1{fill:#d51f26;}</style></defs><g id="레이어_2" data-name="레이어 2"><g id="Layer_1" data-name="Layer 1"><circle class="cls-1" cx="51.64" cy="4.04" r="4.04"/><path class="cls-1" d="M1.76,80.81A1.61,1.61,0,0,1,.17,79.39c-.81-6.94.91-20.47,13.24-21.94h.18a11.45,11.45,0,0,0,7.06-3.22l.15-.12a45.06,45.06,0,0,1,9.3-5.18,31.41,31.41,0,0,0,12-12.33,104.47,104.47,0,0,1,5.06-13.12c-2.33-2.65-8.9-10.95-8-18.94a1.6,1.6,0,1,1,3.18.36c-.9,8,7.81,17.12,7.9,17.21A1.61,1.61,0,0,1,50.51,24a99.21,99.21,0,0,0-5.39,13.72A1.39,1.39,0,0,1,45,38,33.87,33.87,0,0,1,31.46,51.81l-.11,0a43.24,43.24,0,0,0-8.56,4.74,14.62,14.62,0,0,1-9.08,4c-5,.63-8.31,3.82-9.73,9.5A28,28,0,0,0,3.35,79,1.61,1.61,0,0,1,2,80.8Z"/><path class="cls-1" d="M42.9,83.72A34.46,34.46,0,0,1,22,77l-.1-.08-4.34-3.84L17.44,73a3.07,3.07,0,0,0-2.12-.89c-.85.12-1.56,1-2,1.84-.21,1.16-.53,3.79,0,5.24a1.6,1.6,0,0,1-3,1.08c-.95-2.68-.15-6.75-.06-7.2a1.82,1.82,0,0,1,.17-.44c1.2-2.21,2.73-3.46,4.55-3.7a6.06,6.06,0,0,1,4.78,1.8l4.25,3.75c17.61,13,39.15,1.14,39.37,1C85.46,63.07,78.94,34,78.87,33.74,75.05,16.65,60,17.11,59.34,17.14a1.6,1.6,0,0,1-.75-.15c-7.17-3.3-9.31-14.35-9.4-14.82a1.6,1.6,0,1,1,3.14-.59c0,.1,1.87,9.54,7.3,12.36C62.47,14,78,15,82,33c.07.29,7.16,31.64-17.11,45.24A50.21,50.21,0,0,1,42.9,83.72Z"/><path class="cls-1" d="M40.94,77.37c-6.42,0-11.84-1.85-15.91-5.47a1.34,1.34,0,0,1-.2-.21c-.12-.16-3-3.93-2.5-8.11A8,8,0,0,1,25.5,58.2c.65-.68,3.12-2.76,9.22-2.92h.17c.22,0,22,1.57,31.87-12.45.37-.6,2-3,4.27-2.84,1.41.09,2.54,1.07,3.36,2.9.07.16,7.67,17.48-15.35,30.38a.31.31,0,0,1-.1,0,48.68,48.68,0,0,1-12,3.55A38.3,38.3,0,0,1,40.94,77.37ZM27.28,69.62c10.81,9.43,29.2,1.31,30.25.83C77.83,59,71.74,44.8,71.47,44.2a2.38,2.38,0,0,0-.68-1,3.94,3.94,0,0,0-1.33,1.37c-4.59,6.56-12.06,11-21.65,13a53.11,53.11,0,0,1-13.09,1c-5.25.15-6.88,1.91-6.9,1.92a1,1,0,0,1-.25.24A4.93,4.93,0,0,0,25.5,64C25.19,66.5,26.9,69.08,27.28,69.62Zm-.69-10.24h0Z"/></g></g></svg>