<svg xmlns="http://www.w3.org/2000/svg" viewBox="0 0 86.67 90.83"><defs><style>.cls-1{fill:#cac9ca;}.cls-2{fill:none;stroke:#cac9ca;stroke-linecap:round;stroke-linejoin:round;stroke-width:3.2px;}</style></defs><g id="레이어_2" data-name="레이어 2"><g id="Layer_1" data-name="Layer 1"><circle class="cls-1" cx="49.96" cy="24.25" r="4.04"/><path class="cls-2" d="M8,14.89v4s.33,3.17-5.67,3.17"/><path class="cls-2" d="M51.19,60.89s-15-1.33-15,12.67c0,0,.66,7.67,6,8,0,0-10.67,2.67-10.67,7.67"/><path class="cls-1" d="M8.07,27.93A9.86,9.86,0,0,1,4.13,24C3.45,22.16,2.8,19,3.52,17.76a.9.9,0,0,1,.73-.45l.15,0,6.86-1.67c.38-.1,3.76-1,5.42-3.33l3-4.44a9.42,9.42,0,0,1,4.69-3l.14,0c.07,0,6.92-2,11.19-1.47a10.91,10.91,0,0,1,6.2,6.28L44.69,8A13.91,13.91,0,0,0,36.47.19l-.22,0c-4.76-.68-11.8,1.3-12.62,1.53a12.57,12.57,0,0,0-6.54,4.24A.86.86,0,0,0,17,6l-3,4.44a7.73,7.73,0,0,1-3.59,2.05L3.71,14.16a4.05,4.05,0,0,0-3,2c-1.75,3,.06,8.15.44,9.16,0,.08.08.17.12.25a14.45,14.45,0,0,0,3.56,4.12Z"/><path class="cls-1" d="M86,62.53a1.6,1.6,0,0,0-1.42-1.07,1.62,1.62,0,0,0-1.53.91c-3.35,7-10.77,10.18-10.87,10.23-1.54.67-2.77.84-3.56.47a1.83,1.83,0,0,1-.9-1h0c-5.09-22.91-15.32-33.83-21-38.31L43,34.9a37.37,37.37,0,0,1,7.53,7c4.51,5.34,10.63,15,14.15,30.9a5,5,0,0,0,2.57,3.15c1.69.83,3.81.7,6.27-.38a27.52,27.52,0,0,0,10-7.77A13.57,13.57,0,0,1,82.09,73c-2.24,4.61-7,8.2-14.26,10.68a1.62,1.62,0,0,0-.88.75s-1.69,2.83-6.76,2.83H22.05a6.63,6.63,0,0,1,4-3.39,1.6,1.6,0,0,0,1.05-1.51V64.73a1.61,1.61,0,0,0-.53-1.19c-.41-.37-9-8.35-4-23.52l-3.37.12c-4.19,14.3,2.64,23,4.66,25.24V81.32a8.82,8.82,0,0,0-5.5,7.57,1.6,1.6,0,0,0,1.6,1.6H60.19c5.57,0,8.26-2.71,9.18-3.93,7.78-2.76,13-6.84,15.6-12.13A16.54,16.54,0,0,0,86,62.53Z"/><line class="cls-2" x1="27.02" y1="13.73" x2="27.02" y2="16.73"/><path class="cls-1" d="M48.73,22.92,47,32.58a7,7,0,0,1-2.84,1.34L20.44,39.3l-15.81-7-.1-.07a3.94,3.94,0,0,1,1.11-1.11L51.84,5.38c0,.22-.08.49-.15.82l-.79,4.46a1.77,1.77,0,0,0,1.35,2h0A1.46,1.46,0,0,0,54,11.53l.84-4.72c.2-1,.76-3.63-.93-4.73a2.92,2.92,0,0,0-3.24.29L4,28.33l-.16.1C2,29.78,1.14,31.18,1.3,32.59a3.41,3.41,0,0,0,2.07,2.6l16.25,7.25a1.62,1.62,0,0,0,.65.14,2,2,0,0,0,.35,0L45,37c3.84-1.09,4.81-2.59,5-3.19a.91.91,0,0,0,.09-.31l1.76-9.89Z"/></g></g></svg>