<svg xmlns="http://www.w3.org/2000/svg" viewBox="0 0 330.06 286.87"><defs><style>.cls-1{fill:#e3001a;}</style></defs><g id="레이어_2" data-name="레이어 2"><g id="Isolation_Mode" data-name="Isolation Mode"><path class="cls-1" d="M302.07,50.22H227.12V26.07A26.09,26.09,0,0,0,201.05,0H129a26.1,26.1,0,0,0-26.07,26.07V50.22H28a28,28,0,0,0-28,28V258.88a28,28,0,0,0,28,28H302.07a28,28,0,0,0,28-28V78.21A28,28,0,0,0,302.07,50.22ZM125.34,26.07A3.67,3.67,0,0,1,129,22.39h72a3.68,3.68,0,0,1,3.68,3.68V50.22H125.34ZM165,248.35a79.81,79.81,0,1,1,79.81-79.81A79.81,79.81,0,0,1,165,248.35Z"/><polygon class="cls-1" points="184.81 112.04 145.25 112.04 145.25 148.76 108.53 148.76 108.53 188.32 145.25 188.32 145.25 225.05 184.81 225.05 184.81 188.32 221.53 188.32 221.53 148.76 184.81 148.76 184.81 112.04"/></g></g></svg>