<svg xmlns="http://www.w3.org/2000/svg" viewBox="0 0 388.53 333.68"><defs><style>.cls-1{fill:#414042;}</style></defs><g id="레이어_2" data-name="레이어 2"><g id="Isolation_Mode" data-name="Isolation Mode"><path class="cls-1" d="M119.65,158.07l30-97.41,64.2,145.93,14.19-49.34H382.6c8.11-28.4,5.86-49.49,4.89-56.8C383.58,70.86,367.57,15.7,302.79,3A151.24,151.24,0,0,0,275.63,0l-1.86,0h0c-45-.06-71.6,27.83-79.63,35.64-8-7.81-34.63-35.7-79.62-35.64h0l-1.85,0A151.34,151.34,0,0,0,85.41,3C20.63,15.7,3.16,74,.72,100.45c-.62,6.66-2.85,28.27,5.83,57.62Z"/><path class="cls-1" d="M245.32,180.19l-26.93,93.66-64.93-147.6L136.59,181H15.12c20.74,45.8,68.92,103.28,179,152.67,111.42-50,159.7-107.67,180.12-153.49Z"/></g></g></svg>