<svg xmlns="http://www.w3.org/2000/svg" viewBox="0 0 366.08 410.18"><defs><style>.cls-1{fill:#414042;}</style></defs><g id="레이어_2" data-name="레이어 2"><g id="Isolation_Mode" data-name="Isolation Mode"><path class="cls-1" d="M111.68,138.44l2.4-.22a4.88,4.88,0,0,0,2.43-.92,256.15,256.15,0,0,0,8.62,24.92,272.22,272.22,0,0,0,13.21,28.43c-.43,6.27-.91,12.55-1.47,18.8a47.68,47.68,0,0,1-2.07,10.4c-.16.12-.51,35.5-.51,35.5A49,49,0,0,0,172.19,303a6.49,6.49,0,0,1,6.06-4.18H188a6.5,6.5,0,0,1,6.07,4.22,49,49,0,0,0,38.08-47.71s-.6-35.3-.89-35.5a47.68,47.68,0,0,1-2.07-10.4c-.56-6.25-1-12.53-1.46-18.8A274.46,274.46,0,0,0,241,162.22a256.15,256.15,0,0,0,8.62-24.92,4.92,4.92,0,0,0,2.44.92l2.39.22c2.87.27,5.38-2.05,5.68-5.81l2.57-33a5.41,5.41,0,0,0-4.8-5.49l-.29,0c2.64-34.46-3.94-50.36-3.94-50.36S241.07,10.15,200.24,1.87A96.45,96.45,0,0,0,183.15,0h-.22a96.75,96.75,0,0,0-17.1,1.87C125,10.15,112.47,43.71,112.47,43.71s-6.59,15.9-4,50.36l-.29,0a5.41,5.41,0,0,0-4.8,5.49l2.57,33C106.3,136.39,108.81,138.71,111.68,138.44Z"/><path class="cls-1" d="M366.06,356.77c-1.19-52-6.45-63.7-9.17-71.73-1.1-3.22-2-24.85-37.74-38.85-21.88-8.56-50.07-8.81-74-18.92v28.08a62,62,0,0,1-50.73,60.87A6.48,6.48,0,0,1,188,321.7h-.26v21.18a37.48,37.48,0,1,0,74.95,0V328a21.28,21.28,0,1,1,9.94-.88v15.73a47.41,47.41,0,1,1-94.82,0V321.66a6.47,6.47,0,0,1-6-5.46,62,62,0,0,1-50.53-60.85V227.11c-24,10.26-52.4,10.48-74.38,19.08C11.15,260.19,10.29,281.82,9.2,285c-2.73,8-8,19.71-9.18,71.73-.16,6.91,0,17.32,20.62,26.38,44.85,17.58,102.65,23.11,159.73,27,.28,0,1.46,0,2.67,0s2.4,0,2.67,0c57.08-3.9,114.88-9.43,159.74-27C366.06,374.09,366.22,363.68,366.06,356.77ZM115.11,335.61H93.78v21.32H78.62V335.61H57.3V320.45H78.62V299.12H93.78v21.33h21.33Z"/><path class="cls-1" d="M277.34,307a11.52,11.52,0,1,0-11.52,11.51A11.51,11.51,0,0,0,277.34,307Z"/></g></g></svg>