<svg xmlns="http://www.w3.org/2000/svg" viewBox="0 0 82.93 80.8"><defs><style>.cls-1{fill:#d51f26;}</style></defs><g id="레이어_2" data-name="레이어 2"><g id="Layer_1" data-name="Layer 1"><path class="cls-1" d="M27.37,38.82A1.79,1.79,0,0,1,26,38.13L13.68,22.49a1.78,1.78,0,0,1-.36-1.32A1.8,1.8,0,0,1,14,20a44.85,44.85,0,0,1,26.5-9.09,1.79,1.79,0,0,1,1.73,1.83,1.76,1.76,0,0,1-1.83,1.74,42,42,0,0,0-22.77,7.27l10.17,13A25.73,25.73,0,0,1,40.9,31.29a1.78,1.78,0,0,1,1.71,1.86,1.8,1.8,0,0,1-1.85,1.71,22.51,22.51,0,0,0-12.37,3.63A1.77,1.77,0,0,1,27.37,38.82Z"/><path class="cls-1" d="M53.31,38.82a1.8,1.8,0,0,1-1.13-.41A18.79,18.79,0,0,0,40,34.85a1.78,1.78,0,0,1-.27-3.55,22.25,22.25,0,0,1,13.23,3.31L63.05,21.73a42,42,0,0,0-22.76-7.27,1.79,1.79,0,0,1-.1-3.57A44.77,44.77,0,0,1,66.68,20a1.77,1.77,0,0,1,.68,1.19A1.83,1.83,0,0,1,67,22.49L54.71,38.13a1.8,1.8,0,0,1-1.21.68Z"/><rect class="cls-1" x="38.19" y="21.98" width="4.41" height="12.28" rx="1.67"/><path class="cls-1" d="M77.24,65.55v6.73a5,5,0,0,1-5,5H8.52a5,5,0,0,1-5-5V8.52a5,5,0,0,1,5-5H72.28a5,5,0,0,1,5,5V51H80.8V8.52A8.53,8.53,0,0,0,72.28,0H8.52A8.53,8.53,0,0,0,0,8.52V72.28A8.53,8.53,0,0,0,8.52,80.8H72.28a8.53,8.53,0,0,0,8.52-8.52V65.55Z"/><circle class="cls-1" cx="78.89" cy="65.42" r="4.04"/><rect class="cls-1" x="77.19" y="44.23" width="3.62" height="8.34" rx="1.53"/></g></g></svg>