<svg xmlns="http://www.w3.org/2000/svg" viewBox="0 0 81.4 81.37"><defs><style>.cls-1{fill:#d51f26;}.cls-2{fill:none;stroke:#d51f26;stroke-linecap:round;stroke-miterlimit:10;stroke-width:3.2px;}</style></defs><g id="레이어_2" data-name="레이어 2"><g id="Layer_1" data-name="Layer 1"><circle class="cls-1" cx="77.36" cy="34.11" r="4.04"/><path class="cls-1" d="M24.1,81.37a1.58,1.58,0,0,1-.63-.13,1.61,1.61,0,0,1-1-1.66L25,58.7H16.1a1.6,1.6,0,0,1-1.43-2.32l12-23.83a1.59,1.59,0,0,1,1.42-.88l21.16-.17a1.67,1.67,0,0,1,1.42.83A1.61,1.61,0,0,1,50.61,34L42.54,46.5H50.1a1.6,1.6,0,0,1,1.24,2.62l-26,31.66A1.6,1.6,0,0,1,24.1,81.37ZM18.7,55.5h8.07A1.6,1.6,0,0,1,28,56a1.58,1.58,0,0,1,.4,1.25l-2,17.24L46.72,49.7H39.6a1.59,1.59,0,0,1-1.4-.83,1.61,1.61,0,0,1,.06-1.64l8.06-12.51-17.23.14Z"/><path class="cls-1" d="M54.9,16.62l.37,1.08H61.6a14.39,14.39,0,0,1,11.53,5.8L76,22.05A17.57,17.57,0,0,0,61.6,14.5H57.52a23.07,23.07,0,0,0-42.95.27,17.6,17.6,0,0,0,3,34.93h3.1l1.45-3.2H17.6a14.39,14.39,0,0,1-1.67-28.69l1-.12.32-1a19.88,19.88,0,0,1,37.64-.11Z"/><path class="cls-1" d="M75.9,33.76A14.42,14.42,0,0,1,61.6,46.5H41.51l-1.45,3.2H61.6A17.61,17.61,0,0,0,79.12,33.64Z"/><path class="cls-2" d="M68.52,17.77a17.18,17.18,0,0,1,6.16,5.08"/></g></g></svg>