<svg xmlns="http://www.w3.org/2000/svg" viewBox="0 0 105.27 105.27"><defs><style>.cls-1{fill:#6d6e71;}.cls-2{fill:#ed1b23;}.cls-3{fill:#fff;}.cls-4{fill:#e02d33;}.cls-5{fill:#ec1f26;}</style></defs><g id="레이어_2" data-name="레이어 2"><g id="Isolation_Mode" data-name="Isolation Mode"><path class="cls-1" d="M77.48,22.19,77,21.46s-.2-.19-.11-.35c0,0,.09-.25-.27-.47l-.94-.36a3.66,3.66,0,0,1-.65-.52,1.48,1.48,0,0,0-1.31-.47,3.29,3.29,0,0,0-.15-.83s-.09-.27-.27-.09l-.21.29s-.27.47-.36.61a14.13,14.13,0,0,0-2.24.45,3.44,3.44,0,0,1-1.62-.14l-1.57-1s-.61-.34-.9-.11a2.32,2.32,0,0,0,.16,2.38l.24.52a5.25,5.25,0,0,1,.47,1.07,5.14,5.14,0,0,1,0,1.73,17.63,17.63,0,0,1-2,2.52l-1.45,1.17c-1.17.6-4.49.7-5.9.55-1.74-.19-4.45-.12-5.9-.37s-3.25-.3-4.61-.51a32.69,32.69,0,0,0-5.38,0,16.53,16.53,0,0,0-3.4.74,10.44,10.44,0,0,0-2.79,1.22c-.54-.22-1-.4-1.17-.51a9.66,9.66,0,0,1-5.29-5.36s-1.14-2.23.61-3c0,0,2.35-1.61,1.73-2.76,0,0-.61-.88-3,.5,0,0-3.41,1.73-2.85,4.8A14.85,14.85,0,0,0,34.54,33l.24.13A20.28,20.28,0,0,0,34.66,36a14.36,14.36,0,0,0,.24,2.7c.23,1,.57,2.13.64,2.87a3.67,3.67,0,0,1-.92,2.44c-.63.82-.91,1.77-1.42,1.91s-1.2.81-1,1.46.84,1.89,1.05,2.63a12.94,12.94,0,0,0,.9,2.38c.41.77.68,1.58,1.42,1.93s1.27-.13,2.4-.24,1.64-.34,1.6-.81a1.39,1.39,0,0,0-.77-1.12,6.44,6.44,0,0,0-2-.1c-.19,0-1.16-2.4-.72-2.87s1.84-.85,3.18-1.55,4.64-3,4.64-3a3.41,3.41,0,0,0,0,2.26A16.8,16.8,0,0,0,47,50.29c.87.72,2.35,1.76,2.87,2.19S51,53,52.4,53c1.15,0,2.18-.55,2-1.32a1.22,1.22,0,0,0-1.15-1.07c-.58-.09-1.17.2-1.75.07a7.15,7.15,0,0,1-2.59-2.29c-.51-.81-1.27-1.31-.8-1.88s.1-2.7.92-3.16a9.2,9.2,0,0,1,3.38-.84,12.39,12.39,0,0,1,3-.19c1,.15,2.76-.08,3,.27s.19,1.1.23,2-.07,2.34,0,3.09a22.45,22.45,0,0,1,.28,3.07,1.8,1.8,0,0,0,.6,1.62,8,8,0,0,0,2.62.26c.91-.05,1-.55.94-1a1.13,1.13,0,0,0-1-1.14c-.24,0-.75.11-.78-.22a5.16,5.16,0,0,1-.13-1.89,12.41,12.41,0,0,0,.68-2.4c.07-.81.25-3.14.25-3.14a3,3,0,0,0,.92.86c.5.24,1.33,2,1.82,2.63s1.34,2.11,1.92,2.73a8.4,8.4,0,0,1,1.38,1.61,8.79,8.79,0,0,0,1.22,1.81,5.62,5.62,0,0,0,1.94,1.39c1,.34,2.92.69,2.79-.64a1.73,1.73,0,0,0-1.75-1.5c-.34,0-1.48-2.1-1.9-3s-2.22-5.4-1.88-5.91a14.47,14.47,0,0,0,.75-1.87,28.15,28.15,0,0,0,3.91-8.35s.63-4,1.6-5.33a12.87,12.87,0,0,0,1.6-2.48,6.9,6.9,0,0,1,.82-1.31s.54-.34.25-1.26"/><path class="cls-2" d="M73.39,52.78a6.08,6.08,0,0,0-6,5.27c-2.69.18-5.71.53-7.81,6.85-1.46,4.4-7.84,7.34-11.84,6.56a2.88,2.88,0,0,1-2.65-3.33c.15-2.37,1.52-2.61,4.83-2.64,2.14,0,4.34,0,5.44-1.77s.36-3.62-.71-5.06a11.78,11.78,0,0,0,1.52-.92,45.41,45.41,0,0,0,5.8-5.47A52.23,52.23,0,0,1,67,47.33a1.21,1.21,0,0,0,.24-1.68L69,43.83a26.8,26.8,0,0,0,6.8-12.23,16,16,0,0,0-.77-10c-1.6-3.59-4.54-5.81-7.7-5.81h-.05a11.3,11.3,0,0,0-5.63,2.15l-.2-.28s-2.7.57-2.67,1.63a1.52,1.52,0,0,0,.16.54c.29.6,1,1.43,1.69,1.21,0,0,.46,0,1.77-2l-.14-.21a10.34,10.34,0,0,1,5-1.95h0c2.74,0,5.32,2,6.74,5.18,3.26,7.36-.88,15.75-5.84,21.15l-1.88,2a1.18,1.18,0,0,0-.76.25,55.45,55.45,0,0,0-5.38,5.18,45.6,45.6,0,0,1-5.26,5l-.22.13a4.37,4.37,0,0,1-2.34,1h0a4.39,4.39,0,0,1-2.34-1,43.71,43.71,0,0,1-5.43-5.16,55.45,55.45,0,0,0-5.38-5.18,1.2,1.2,0,0,0-.76-.25l-1.88-2c-5-5.4-9.1-13.79-5.84-21.15,1.42-3.2,4-5.18,6.74-5.18h0a10.34,10.34,0,0,1,5,1.95l-.14.21c1.31,2.06,1.77,2,1.77,2,.72.22,1.4-.61,1.69-1.21a1.52,1.52,0,0,0,.16-.54c0-1.06-2.68-1.63-2.68-1.63l-.19.28a11.3,11.3,0,0,0-5.63-2.15h0c-3.16,0-6.1,2.22-7.7,5.81A16,16,0,0,0,29,31.6a26.8,26.8,0,0,0,6.8,12.23l1.68,1.82a1.21,1.21,0,0,0,.24,1.68,52.23,52.23,0,0,1,5.1,4.94,45.41,45.41,0,0,0,5.8,5.47,7.15,7.15,0,0,0,3.25,1.44c.71.7,2,2.28,1.44,3.23-.39.61-2,.63-3.4.64-2.76,0-6.94.06-7.24,4.93a5.3,5.3,0,0,0,4.62,5.88A9.39,9.39,0,0,0,49,74a14.88,14.88,0,0,0,6.64-1.72,12,12,0,0,0,6.18-6.63c1.6-4.8,3.24-5,5.67-5.19a6.08,6.08,0,1,0,5.86-7.7"/><path class="cls-1" d="M68.13,50.65A8.4,8.4,0,0,0,66.75,49c-.58-.62-1.43-2.06-1.92-2.73S63.51,43.92,63,43.68s7.21-4.1,6.29-2.76a14.47,14.47,0,0,1-.75,1.87c-.34.51,1.46,5,1.88,5.91s1.56,3,1.9,3Z"/><path class="cls-1" d="M70.53,19.71a15,15,0,0,1,2.24-.44c.09-.14.36-.61.36-.61l.21-.29c.17-.18.26.09.26.09a3,3,0,0,1,.16.83,1.48,1.48,0,0,1,1.31.47,3.66,3.66,0,0,0,.65.52l.94.36c.36.22.27.47.27.47-.09.15.11.35.11.35l.44.73c.29.92-.25,1.26-.25,1.26a6.9,6.9,0,0,0-.82,1.31,12.69,12.69,0,0,1-1.6,2.47c-1,1.31-1.6,5.34-1.6,5.34"/><path class="cls-1" d="M43.86,44.7s-3.3,2.28-4.64,3S36.47,48.75,36,49.22s.53,2.89.72,2.87a6.44,6.44,0,0,1,2,.1,1.39,1.39,0,0,1,.77,1.12c0,.47-.46.71-1.6.81s-1.75.55-2.4.24-1-1.16-1.42-1.93a12.94,12.94,0,0,1-.9-2.38c-.21-.74-.9-2-1.05-2.63s.53-1.32,1-1.46.79-1.09,1.42-1.91a3.67,3.67,0,0,0,.92-2.44c-.07-.74-.41-1.85-.64-2.87"/><path class="cls-1" d="M30,20.63s2.35-1.61,1.73-2.76c0,0-.61-.88-3,.5"/><path class="cls-3" d="M76.51,58.86A3.13,3.13,0,1,0,73.38,62a3.13,3.13,0,0,0,3.13-3.13"/><path class="cls-4" d="M1.61,52.64A51,51,0,1,1,97.77,76.4h1.81A52.63,52.63,0,1,0,0,52.64,52.34,52.34,0,0,0,5.69,76.4H7.5A50.75,50.75,0,0,1,1.61,52.64"/><path class="cls-4" d="M52.64,103.66A50.77,50.77,0,0,1,20.85,92.51H18.33a52.49,52.49,0,0,0,68.61,0H84.42a50.74,50.74,0,0,1-31.78,11.15"/><path class="cls-5" d="M4.06,88.4a.49.49,0,0,1-.53-.55v-.24a.47.47,0,0,1,.52-.54H6.63V83.94a.55.55,0,0,1,.59-.55h.44a.56.56,0,0,1,.6.55v3.13h4a.47.47,0,0,1,.52.54v.24a.49.49,0,0,1-.53.55ZM11,86h-.83c-.35,0-.36-.24-.28-.55a18.24,18.24,0,0,0,.53-3.85c0-.29-.09-.29-.28-.29H4.72a.49.49,0,0,1-.53-.54v-.24A.47.47,0,0,1,4.71,80h6.62c.55,0,.77.18.77.68a19,19,0,0,1-.58,4.89c0,.19-.12.44-.51.44"/><path class="cls-5" d="M15.88,79.81c1.79,0,2.95,1,2.95,2.56s-1.16,2.55-2.95,2.55S13,83.88,13,82.37s1.14-2.56,2.93-2.56m1.59,5.32c2.37,0,3.89.47,3.89,2s-1.52,2-3.89,2-3.89-.46-3.89-2,1.51-2,3.89-2m-1.59-1.5a1.27,1.27,0,1,0,0-2.53,1.27,1.27,0,1,0,0,2.53m1.59,4.27c1.61,0,2.24-.13,2.24-.75s-.63-.76-2.24-.76-2.24.13-2.24.76.63.75,2.24.75m3.81-7.15h.63c.32,0,.52.18.52.56v.2a.51.51,0,0,1-.53.57h-.62v.65h.63c.32,0,.52.18.52.56v.2a.51.51,0,0,1-.53.57h-.62v.54a.55.55,0,0,1-.6.54h-.44a.55.55,0,0,1-.6-.54V80.39a.56.56,0,0,1,.6-.55h.44a.56.56,0,0,1,.6.55Z"/><path class="cls-5" d="M25.79,79.8c2,0,3.05,1.6,3.05,4.24s-1.06,4.22-3.05,4.22-3-1.59-3-4.22,1.05-4.24,3-4.24m0,7.13c.93,0,1.43-1,1.43-2.89s-.5-2.91-1.43-2.91-1.42,1-1.42,2.91.49,2.89,1.42,2.89m5.49,1.53a.55.55,0,0,1-.59.55h-.44a.56.56,0,0,1-.6-.55V80.39a.56.56,0,0,1,.6-.55h.44a.55.55,0,0,1,.59.55Z"/><path class="cls-1" d="M39.46,86.59v2a.55.55,0,0,1-.59.55h-.45a.55.55,0,0,1-.59-.55v-2H34.56A.51.51,0,0,1,34,86v-.2c0-.38.2-.56.52-.56h8.18c.32,0,.52.18.52.56V86a.51.51,0,0,1-.53.57Zm0-5.3c.12,1.22,1.43,1.77,3.2,1.91.36,0,.45.18.35.6l-.07.3c-.08.39-.35.42-.69.4-.57,0-2.71-.16-3.64-1.51-.93,1.34-3,1.49-3.63,1.53-.34,0-.6,0-.68-.41l-.08-.31c-.08-.32,0-.56.35-.6,1.8-.19,3.08-.69,3.2-1.91H35.22a.49.49,0,0,1-.53-.55V80.5a.47.47,0,0,1,.52-.54h6.87a.47.47,0,0,1,.52.54v.24a.49.49,0,0,1-.53.55Z"/><path class="cls-1" d="M47.69,83a4.77,4.77,0,0,0,2.15,4,.56.56,0,0,1,.07.84l-.15.2c-.22.27-.63.19-.92,0a6.33,6.33,0,0,1-2-2.24,5.38,5.38,0,0,1-2,2.29c-.3.18-.65.27-.9,0l-.21-.21a.59.59,0,0,1,.06-.79A4.8,4.8,0,0,0,46.05,83H44.44a.51.51,0,0,1-.53-.57v-.2a.49.49,0,0,1,.52-.56h5a.49.49,0,0,1,.52.56v.2a.51.51,0,0,1-.53.57Zm-2.25-1.88a.5.5,0,0,1-.53-.56V80.3a.48.48,0,0,1,.52-.55h3a.48.48,0,0,1,.52.55v.21a.5.5,0,0,1-.53.56Zm6.9,7.39a.56.56,0,0,1-.6.55H51.3a.56.56,0,0,1-.6-.55V80.39a.56.56,0,0,1,.6-.55h.44a.56.56,0,0,1,.6.55Z"/><path class="cls-1" d="M53.68,88.09a.51.51,0,0,1-.53-.57v-.2a.49.49,0,0,1,.52-.56h1.9A12.87,12.87,0,0,0,60.15,86V80.39a.56.56,0,0,1,.6-.55h.44a.55.55,0,0,1,.59.55v8.07a.55.55,0,0,1-.59.55h-.44a.56.56,0,0,1-.6-.55V87.35a14.18,14.18,0,0,1-4.64.74Zm2.75-8.29a2.92,2.92,0,1,1-3,2.93,2.81,2.81,0,0,1,3-2.93m0,4.53c.83,0,1.37-.61,1.37-1.6s-.54-1.61-1.37-1.61-1.37.61-1.37,1.61.53,1.6,1.37,1.6"/><path class="cls-5" d="M65.06,88.4a.49.49,0,0,1-.53-.55v-.24a.47.47,0,0,1,.52-.54h8.18a.47.47,0,0,1,.52.54v.24a.49.49,0,0,1-.53.55Zm.34-2.62a.49.49,0,0,1-.53-.55V85a.48.48,0,0,1,.52-.54h1l-.15-2.07c0-.43.16-.63.54-.63h.56c.36,0,.52.18.54.63L68,84.45h2.28l.15-2.07c0-.45.18-.63.54-.63h.56c.38,0,.56.2.54.63l-.16,2.07h1a.48.48,0,0,1,.52.54v.24a.49.49,0,0,1-.53.55Zm.17-4.45a.49.49,0,0,1-.53-.54v-.24a.47.47,0,0,1,.52-.54h7.17a.47.47,0,0,1,.52.54v.24a.49.49,0,0,1-.53.54Z"/><path class="cls-5" d="M74.58,88.4a.49.49,0,0,1-.53-.55v-.24a.47.47,0,0,1,.52-.54h3.28V85.83H76.24c-.88,0-1.52-.36-1.52-1.32V83.26a1,1,0,0,1,1.12-1.06h4.71c.27,0,.34-.12.34-.37v-.18c0-.3-.08-.32-.27-.32H75.31a.49.49,0,0,1-.53-.54v-.24A.47.47,0,0,1,75.3,80h6.53c.55,0,.7.2.7.74v1.84a.87.87,0,0,1-1,.94H76.65c-.26,0-.3.06-.3.34v.32c0,.26.1.31.3.31h5.56c.32,0,.52.18.52.56v.2a.51.51,0,0,1-.53.57H79.49v1.24h3.27a.47.47,0,0,1,.52.54v.24a.49.49,0,0,1-.53.55Z"/><path class="cls-5" d="M86.89,81.33v.35A2.77,2.77,0,0,0,88.24,84c.25.18.39.49.2.69l-.23.25a.55.55,0,0,1-.81.14,4.76,4.76,0,0,1-1.28-1.19,5,5,0,0,1-1.49,1.45.55.55,0,0,1-.81-.06l-.21-.19a.45.45,0,0,1,0-.71,3,3,0,0,0,1.55-2.75v-.33h-.94a.49.49,0,0,1-.53-.54v-.25a.47.47,0,0,1,.52-.53h3.67a.47.47,0,0,1,.52.53v.25a.49.49,0,0,1-.53.54Zm5,7.78h-.45a.55.55,0,0,1-.59-.55V87.34c0-.3-.08-.32-.27-.32H85.31a.49.49,0,0,1-.53-.55v-.24a.48.48,0,0,1,.52-.54h6.53c.55,0,.69.2.69.74v2.13a.55.55,0,0,1-.59.55m-1.36-4.29a.55.55,0,0,1-.6.54H89.6a.55.55,0,0,1-.6-.54V83.08h-.94a.49.49,0,0,1-.53-.54V82.3a.47.47,0,0,1,.52-.54h1V80.39a.56.56,0,0,1,.6-.55H90a.56.56,0,0,1,.6.55Zm2,0a.55.55,0,0,1-.59.54h-.38a.55.55,0,0,1-.59-.54V80.39a.55.55,0,0,1,.59-.55h.38a.55.55,0,0,1,.59.55Z"/><path class="cls-5" d="M93.63,88.4a.49.49,0,0,1-.53-.55v-.24a.47.47,0,0,1,.52-.54h8.19a.48.48,0,0,1,.52.54v.24a.49.49,0,0,1-.53.55Zm1.82-4.08c0,.26.08.31.28.31h5.43a.48.48,0,0,1,.52.54v.24a.49.49,0,0,1-.53.55h-5.8a1.36,1.36,0,0,1-1.54-1.41v-3.8c0-.54.15-.74.7-.74H101a.47.47,0,0,1,.52.54v.24a.49.49,0,0,1-.53.54H95.72c-.19,0-.27,0-.27.32Zm.82-.73a.49.49,0,0,1-.53-.54v-.24a.47.47,0,0,1,.52-.54H101a.47.47,0,0,1,.52.54v.24a.49.49,0,0,1-.53.54Z"/></g></g></svg>