<svg xmlns="http://www.w3.org/2000/svg" viewBox="0 0 236.16 224.57"><defs><style>.cls-1{fill:#201600;}</style></defs><g id="레이어_2" data-name="레이어 2"><g id="Layer_1" data-name="Layer 1"><path class="cls-1" d="M191.08,224.57l-72.94-1-73,1L23.48,155,0,85.68,59.45,43.77,118.15,0l58.29,43.64,59.72,42-23.49,69ZM2.6,86.53l23,67.76,21.13,68.06,71.45-1,71.33,1L210.59,154l23-67.5L175.14,45.4l-57-42.67L60.74,45.54Z"/><path class="cls-1" d="M175.52,200.78l-57.11-.8-57.22.8L44.27,146.27,25.87,92l.27-.19L72.43,59.18l46-34.29.26.2,45.39,34L210.84,92l-18.4,54.05ZM26.91,92.34,45.1,146l16.73,53.89,56.58-.79,56.47.79,16.73-54.11L209.8,92.34,163.54,59.78,118.41,26,73,59.89Z"/><polygon class="cls-1" points="186.41 101.89 185.58 101.61 186.18 99.85 184.66 98.78 185.17 98.06 187.23 99.51 186.41 101.89"/><path class="cls-1" d="M162.92,174.08l-.84-.26,1.25-4,.83.26Zm2.49-8.06-.84-.26,1.25-4,.84.26ZM167.9,158l-.84-.26,1.25-4,.84.26Zm2.49-8.06-.83-.26,1.24-4,.84.26Zm2.49-8.07-.83-.25.64-2.09.66-1.94.83.28-.66,1.93Zm2.66-8-.83-.28,1.36-4,.83.29Zm2.72-8-.83-.28,1.36-4,.83.28Zm2.72-8-.83-.29,1.36-4,.83.28Zm2.72-8-.83-.28,1.35-4,.83.29Z"/><polygon class="cls-1" points="160.93 180.51 158.41 180.48 158.42 179.6 160.28 179.63 160.84 177.85 161.67 178.11 160.93 180.51"/><path class="cls-1" d="M154.19,180.42l-4.21-.06v-.88l4.22.06Zm-71.67,0,0-.88,4.22-.06v.88Zm63.24-.12-4.22-.06,0-.87,4.21.06ZM91,180.3v-.87l4.22-.06v.87Zm8.44-.11,0-.88,4.22-.06v.88Zm37.94,0-4.22-.05v-.88l4.22.06Zm-8.44-.11-4.22-.06,0-.88,4.21.06Zm-21.07,0v-.88l4.21-.06,0,.88Zm8.43-.12v-.88l2.15,0,2.08,0V180l-2.07,0Z"/><polygon class="cls-1" points="75.78 180.51 75.04 178.11 75.87 177.85 76.42 179.63 78.29 179.6 78.3 180.48 75.78 180.51"/><path class="cls-1" d="M73.79,174.08l-1.25-4,.83-.26,1.25,4ZM71.28,166,70,162l.84-.26,1.25,4ZM68.78,158l-1.25-4,.84-.26,1.25,4Zm-2.5-8.05-1.25-4,.84-.26,1.25,4Zm-2.5-8.06-.6-1.93-.7-2.07.83-.28,1.31,4Zm-2.65-8-1.36-4,.83-.28,1.36,4Zm-2.71-8-1.36-4,.83-.28,1.36,4Zm-2.71-8-1.35-4,.83-.28,1.35,4Zm-2.71-8-1.35-4,.83-.28,1.35,4Z"/><polygon class="cls-1" points="50.29 101.89 49.49 99.51 51.54 98.06 52.05 98.77 50.52 99.85 51.12 101.61 50.29 101.89"/><path class="cls-1" d="M55.49,96.35l-.5-.72,3.45-2.43.5.72Zm6.9-4.86-.51-.72,3.45-2.43.5.72Zm6.89-4.86-.51-.72,3.45-2.43.51.72Zm6.89-4.86-.5-.72,3.44-2.42.51.71Zm6.89-4.86-.5-.71,1.6-1.13L86,73.73l.52.7Zm6.8-5-.52-.71,3.38-2.51.52.7Zm6.76-5-.52-.7,3.38-2.53.52.71Zm6.76-5-.52-.71,3.38-2.52.52.71Zm6.76-5-.52-.7L113,53.56l.52.7Z"/><polygon class="cls-1" points="119.89 51.75 118.4 50.63 116.9 51.74 116.38 51.04 118.4 49.54 120.41 51.05 119.89 51.75"/><path class="cls-1" d="M181.22,96.35l-3.45-2.42.51-.72,3.44,2.42Zm-6.89-4.85-3.45-2.42.51-.72,3.44,2.43Zm-6.89-4.85L164,84.23l.51-.72,3.44,2.43Zm-6.89-4.85-3.45-2.42.51-.72,3.44,2.43ZM153.66,77l-1.78-1.25-1.64-1.23.52-.7L152.39,75l1.77,1.25Zm-6.8-5-3.37-2.53.53-.7,3.37,2.53Zm-6.74-5-3.37-2.53.52-.7,3.38,2.53Zm-6.74-5.05L130,59.32l.53-.7,3.37,2.53Zm-6.75-5.05-3.37-2.53.53-.7,3.37,2.53Z"/><polygon class="cls-1" points="161.84 109.8 161.01 109.52 161.62 107.75 160.09 106.68 160.6 105.97 162.66 107.42 161.84 109.8"/><path class="cls-1" d="M147.82,152.79l-.84-.25,1.34-4.33.84.26Zm2.67-8.64-.83-.26,1.33-4.32.84.26Zm2.67-8.64-.83-.26L153,133l.72-2.11.83.28-.72,2.1Zm2.85-8.58-.83-.28,1.46-4.28.83.28Zm2.92-8.56-.83-.29,1.46-4.28.83.28Z"/><polygon class="cls-1" points="145.74 159.52 143.22 159.49 143.24 158.61 145.1 158.64 145.65 156.86 146.48 157.12 145.74 159.52"/><path class="cls-1" d="M98,159.43v-.88l4.52-.06v.87Zm40.69,0-4.52-.06v-.88l4.52.07Zm-9-.12-4.53-.06,0-.88,4.52.06Zm-22.6,0,0-.88,4.52-.06,0,.88Zm9-.13v-.87l2.29,0,2.24,0v.87l-2.23,0Z"/><polygon class="cls-1" points="90.97 159.52 90.22 157.12 91.06 156.86 91.61 158.64 93.47 158.61 93.49 159.49 90.97 159.52"/><path class="cls-1" d="M88.88,152.8l-1.34-4.32.84-.26,1.34,4.32Zm-2.68-8.64-1.34-4.32.84-.26L87,143.9Zm-2.68-8.65-.66-2.1-.74-2.19.83-.28.75,2.2.65,2.12Zm-2.85-8.57-1.45-4.29.83-.28,1.45,4.29Zm-2.9-8.57-1.46-4.29.83-.28,1.46,4.29Z"/><polygon class="cls-1" points="74.86 109.8 74.06 107.42 76.11 105.97 76.62 106.68 75.09 107.75 75.69 109.52 74.86 109.8"/><path class="cls-1" d="M80.31,104.08l-.5-.72,3.69-2.6.51.71Zm7.39-5.21-.5-.72,3.7-2.6.5.71Zm7.4-5.21-.51-.72,1.77-1.25,1.88-1.4.53.7-1.9,1.41Zm7.29-5.37-.52-.7,3.62-2.7.52.7Zm7.25-5.41-.52-.7,3.62-2.7.52.7Z"/><polygon class="cls-1" points="119.87 77.48 118.38 76.37 116.89 77.48 116.36 76.78 118.38 75.27 120.4 76.78 119.87 77.48"/><path class="cls-1" d="M156.4,104.08l-3.7-2.6.51-.71,3.69,2.6ZM149,98.88l-3.7-2.6.51-.71,3.69,2.6Zm-7.39-5.2-1.88-1.32L138,91l.53-.7,1.77,1.33L142.12,93Zm-7.28-5.37-3.62-2.7.53-.71,3.61,2.71Zm-7.23-5.41-3.62-2.71.52-.7,3.62,2.71Z"/><rect class="cls-1" x="117.99" y="1.66" width="0.88" height="119.06"/><rect class="cls-1" x="59.33" y="42.17" width="0.88" height="121.66" transform="translate(-56.17 130.21) rotate(-73.08)"/><polygon class="cls-1" points="46.52 222.91 45.81 222.4 117.92 120.34 118.07 120.29 234.46 84.88 234.72 85.72 118.47 121.09 46.52 222.91"/><rect class="cls-1" x="153.93" y="109.18" width="0.88" height="125.01" transform="translate(-70.88 121.02) rotate(-35.36)"/></g></g></svg>